<?xml version="1.0" encoding="UTF-8"?>
<svg viewBox="0 0 900 430" xmlns="http://www.w3.org/2000/svg" role="img" aria-labelledby="t d" font-family="-apple-system, BlinkMacSystemFont, 'SF Pro Text', 'Inter', system-ui, 'Segoe UI', Roboto, Helvetica, Arial, sans-serif">
  <title id="t">How LokalBot works — an on-device pipeline</title>
  <desc id="d">Capture (mic as Me via AVAudioEngine, system audio as Them via a Core Audio process tap) → transcribe on the Neural Engine (Parakeet/Whisper/Qwen) with pyannote diarization → summarize on a local llama.cpp server → index in SQLite (FTS5 + vector embeddings). Search, chat, replay, cotyping, day timeline, and the CLI all read locally. Nothing leaves the device except an optional one-time model download.</desc>
  <defs>
    <marker id="ahl" markerWidth="9" markerHeight="9" refX="6" refY="3" orient="auto"><path d="M0,0 L6,3 L0,6 Z" fill="#0FB3A0"/></marker>
  </defs>
  <style>
    .hd{font-size:13px;font-weight:700;fill:#0C8C7D;}
    .ln{font-size:11px;fill:#0D1B26;}
    .sb{font-size:9.5px;fill:#5B6B76;}
    .fl{font-size:9px;fill:#7C8B95;font-family:ui-monospace,'SF Mono',Menlo,Consolas,monospace;}
    .pill{font-size:10.5px;font-weight:600;fill:#0C8C7D;}
  </style>

  <rect x="6" y="6" width="888" height="418" rx="20" fill="#FFFFFF" stroke="#E4E9EE"/>

  <!-- title -->
  <text x="40" y="46" font-size="19" font-weight="800" fill="#0D1B26">How LokalBot works</text>
  <text x="40" y="67" font-size="12" fill="#5B6B76">Every step runs on your Mac — one local model behind all of it.</text>

  <!-- no-cloud pill -->
  <rect x="612" y="30" width="256" height="26" rx="13" fill="#FFFFFF" stroke="#16B3A1" stroke-opacity="0.6"/>
  <text x="740" y="47" text-anchor="middle" font-size="10.5" font-weight="600" fill="#0C8C7D">no cloud · models download once</text>

  <!-- device boundary -->
  <rect x="28" y="86" width="844" height="312" rx="22" fill="none" stroke="#16B3A1" stroke-opacity="0.45" stroke-width="1.4" stroke-dasharray="3 6"/>
  <rect x="44" y="75" width="262" height="22" rx="11" fill="#FFFFFF" stroke="#16B3A1" stroke-opacity="0.6"/>
  <text x="175" y="90" text-anchor="middle" font-size="10.5" letter-spacing="0.3" fill="#0C8C7D">YOUR MAC — nothing leaves the device</text>

  <!-- arrows between stages -->
  <g stroke="#C3CDD6" stroke-width="2">
    <line x1="230" y1="182" x2="254" y2="182" marker-end="url(#ahl)"/>
    <line x1="434" y1="182" x2="458" y2="182" marker-end="url(#ahl)"/>
    <line x1="638" y1="182" x2="662" y2="182" marker-end="url(#ahl)"/>
    <line x1="752" y1="268" x2="752" y2="298" marker-end="url(#ahl)"/>
  </g>

  <!-- stage 1: capture -->
  <rect x="52" y="120" width="176" height="124" rx="14" fill="#F7FAFB" stroke="#E4E9EE"/>
  <text class="hd" x="68" y="146">1 · Capture</text>
  <text class="ln" x="68" y="170">Mic → Me</text>
  <text class="sb" x="68" y="183">AVAudioEngine</text>
  <text class="ln" x="68" y="206">System → Them</text>
  <text class="sb" x="68" y="219">Core Audio process tap</text>
  <text class="fl" x="140" y="262" text-anchor="middle">mic.m4a · system.m4a</text>

  <!-- stage 2: transcribe -->
  <rect x="256" y="120" width="176" height="124" rx="14" fill="#F7FAFB" stroke="#E4E9EE"/>
  <text class="hd" x="272" y="146">2 · Transcribe</text>
  <text class="ln" x="272" y="170">ASR on Neural Engine</text>
  <text class="sb" x="272" y="186">Parakeet · Whisper · Qwen</text>
  <text class="sb" x="272" y="203">CoreML / MLX</text>
  <text class="sb" x="272" y="220">+ pyannote diarization</text>
  <text class="fl" x="344" y="262" text-anchor="middle">transcript.json</text>

  <!-- stage 3: summarize -->
  <rect x="460" y="120" width="176" height="124" rx="14" fill="#F7FAFB" stroke="#E4E9EE"/>
  <text class="hd" x="476" y="146">3 · Summarize</text>
  <text class="ln" x="476" y="170">llama.cpp (local)</text>
  <text class="sb" x="476" y="186">or Ollama · OpenAI</text>
  <text class="sb" x="476" y="203">· Apple Intelligence</text>
  <text class="sb" x="476" y="220">TL;DR · decisions · actions</text>
  <text class="fl" x="548" y="262" text-anchor="middle">summary.md</text>

  <!-- stage 4: index -->
  <rect x="664" y="120" width="176" height="124" rx="14" fill="#F7FAFB" stroke="#E4E9EE"/>
  <text class="hd" x="680" y="146">4 · Index &amp; search</text>
  <text class="ln" x="680" y="170">SQLite · FTS5</text>
  <text class="sb" x="680" y="186">+ vector embeddings</text>
  <text class="sb" x="680" y="203">brute-force cosine</text>
  <text class="fl" x="752" y="262" text-anchor="middle">lokalbotv3.sqlite</text>

  <!-- use strip -->
  <rect x="52" y="300" width="788" height="92" rx="16" fill="#F2FBF9" stroke="#E4E9EE"/>
  <text x="68" y="322" class="hd">USE — all local</text>
  <g>
    <rect x="250" y="308" width="84" height="26" rx="13" fill="#FFFFFF" stroke="#D7E0E6"/><text class="pill" x="292" y="325" text-anchor="middle">Search</text>
    <rect x="344" y="308" width="74" height="26" rx="13" fill="#FFFFFF" stroke="#D7E0E6"/><text class="pill" x="381" y="325" text-anchor="middle">Chat</text>
    <rect x="428" y="308" width="84" height="26" rx="13" fill="#FFFFFF" stroke="#D7E0E6"/><text class="pill" x="470" y="325" text-anchor="middle">Replay</text>
    <rect x="522" y="308" width="98" height="26" rx="13" fill="#FFFFFF" stroke="#D7E0E6"/><text class="pill" x="571" y="325" text-anchor="middle">Cotyping</text>
    <rect x="630" y="308" width="116" height="26" rx="13" fill="#FFFFFF" stroke="#D7E0E6"/><text class="pill" x="688" y="325" text-anchor="middle">Day timeline</text>
  </g>
  <text x="446" y="364" text-anchor="middle" font-size="11" fill="#5B6B76">Read from the local index — plus a read-only lokalbot-cli for coding agents.</text>
</svg>
