<svg width="1200" height="630" viewBox="0 0 1200 630" xmlns="http://www.w3.org/2000/svg">
  <defs>
    <radialGradient id="glowA" cx="0" cy="0" r="1" gradientUnits="userSpaceOnUse" gradientTransform="translate(90 60) rotate(32) scale(610 430)">
      <stop stop-color="#23c4ae" stop-opacity="0.2"/>
      <stop offset="1" stop-color="#23c4ae" stop-opacity="0"/>
    </radialGradient>
    <radialGradient id="glowB" cx="0" cy="0" r="1" gradientUnits="userSpaceOnUse" gradientTransform="translate(1110 620) rotate(-145) scale(560 390)">
      <stop stop-color="#145e5b" stop-opacity="0.28"/>
      <stop offset="1" stop-color="#145e5b" stop-opacity="0"/>
    </radialGradient>
    <linearGradient id="memory" x1="0" y1="0" x2="1" y2="0">
      <stop stop-color="#6ef2dc"/>
      <stop offset="1" stop-color="#23c4ae"/>
    </linearGradient>
    <linearGradient id="iconBg" x1="0" y1="0" x2="0" y2="1">
      <stop stop-color="#222e3d"/>
      <stop offset="1" stop-color="#0e141c"/>
    </linearGradient>
    <linearGradient id="iconBody" x1="0" y1="0" x2="1" y2="1">
      <stop stop-color="#6ef2dc"/>
      <stop offset="1" stop-color="#23c4ae"/>
    </linearGradient>
    <filter id="softShadow" x="-30%" y="-30%" width="160%" height="160%">
      <feDropShadow dx="0" dy="12" stdDeviation="18" flood-color="#000" flood-opacity="0.36"/>
    </filter>
    <pattern id="grain" width="48" height="48" patternUnits="userSpaceOnUse">
      <circle cx="5" cy="11" r="0.6" fill="#fff" opacity="0.08"/>
      <circle cx="31" cy="7" r="0.5" fill="#fff" opacity="0.05"/>
      <circle cx="18" cy="35" r="0.7" fill="#fff" opacity="0.05"/>
      <circle cx="42" cy="29" r="0.5" fill="#fff" opacity="0.07"/>
    </pattern>
  </defs>

  <rect width="1200" height="630" fill="#080d14"/>
  <rect width="1200" height="630" fill="url(#glowA)"/>
  <rect width="1200" height="630" fill="url(#glowB)"/>
  <rect width="1200" height="630" fill="url(#grain)"/>
  <rect width="1200" height="4" fill="#23c4ae"/>

  <g transform="translate(76 58)">
    <g transform="scale(0.0703125)">
      <rect x="64" y="64" width="896" height="896" rx="204" fill="url(#iconBg)"/>
      <rect x="372" y="206" width="36" height="86" rx="18" fill="#3a7d72"/>
      <circle cx="390" cy="186" r="42" fill="#fbbf24"/>
      <rect x="268" y="276" width="244" height="484" rx="62" fill="url(#iconBody)"/>
      <rect x="268" y="592" width="492" height="168" rx="62" fill="url(#iconBody)"/>
      <rect x="312" y="326" width="156" height="118" rx="38" fill="#0e141c"/>
      <circle cx="390" cy="385" r="34" fill="#6ef2dc"/>
      <circle cx="402" cy="373" r="10" fill="#eafffa"/>
      <rect x="206" y="430" width="44" height="180" rx="22" fill="#3a7d72"/>
      <g fill="#0e141c">
        <rect x="556" y="646" width="26" height="60" rx="13"/>
        <rect x="602" y="624" width="26" height="104" rx="13"/>
        <rect x="648" y="638" width="26" height="76" rx="13"/>
        <rect x="694" y="654" width="26" height="44" rx="13"/>
      </g>
    </g>
    <text x="98" y="48" fill="#ecf3f7" font-family="-apple-system, BlinkMacSystemFont, 'Helvetica Neue', Arial, sans-serif" font-size="36" font-weight="700" letter-spacing="-1.2">LokalBot</text>
    <text x="98" y="72" fill="#6f8696" font-family="-apple-system, BlinkMacSystemFont, 'Helvetica Neue', Arial, sans-serif" font-size="15" font-weight="600" letter-spacing="1.9">PRIVATE AI WORK MEMORY FOR MAC</text>
  </g>

  <g transform="translate(76 196)">
    <text x="0" y="0" fill="#ecf3f7" font-family="-apple-system, BlinkMacSystemFont, 'Helvetica Neue', Arial, sans-serif" font-size="68" font-weight="760" letter-spacing="-3.6">Your work,</text>
    <text x="0" y="82" fill="#6ef2dc" font-family="-apple-system, BlinkMacSystemFont, 'Helvetica Neue', Arial, sans-serif" font-size="68" font-weight="760" letter-spacing="-3.6">remembered</text>
    <text x="370" y="82" fill="#ecf3f7" font-family="-apple-system, BlinkMacSystemFont, 'Helvetica Neue', Arial, sans-serif" font-size="68" font-weight="760" letter-spacing="-3.6">on your Mac.</text>
    <text x="2" y="144" fill="#a2b4c2" font-family="-apple-system, BlinkMacSystemFont, 'Helvetica Neue', Arial, sans-serif" font-size="25" font-weight="450">Bot-free meetings become evidence you can recall, write from, and act on.</text>
  </g>

  <g transform="translate(76 500)" filter="url(#softShadow)">
    <rect width="1048" height="82" rx="22" fill="#121c28" fill-opacity="0.84" stroke="#6ef2dc" stroke-opacity="0.16"/>
    <path d="M80 41H968" stroke="#244d4d" stroke-width="2"/>

    <g font-family="-apple-system, BlinkMacSystemFont, 'Helvetica Neue', Arial, sans-serif">
      <g transform="translate(46 0)">
        <circle cx="34" cy="41" r="8" fill="#6ef2dc"/>
        <text x="54" y="35" fill="#ecf3f7" font-size="17" font-weight="700">Remember</text>
        <text x="54" y="56" fill="#6f8696" font-size="13">meetings + context</text>
      </g>
      <g transform="translate(304 0)">
        <circle cx="34" cy="41" r="8" fill="#23c4ae"/>
        <text x="54" y="35" fill="#ecf3f7" font-size="17" font-weight="700">Recall</text>
        <text x="54" y="56" fill="#6f8696" font-size="13">answers + evidence</text>
      </g>
      <g transform="translate(554 0)">
        <circle cx="34" cy="41" r="8" fill="#23c4ae"/>
        <text x="54" y="35" fill="#ecf3f7" font-size="17" font-weight="700">Write</text>
        <text x="54" y="56" fill="#6f8696" font-size="13">dictation + autocomplete</text>
      </g>
      <g transform="translate(806 0)">
        <circle cx="34" cy="41" r="8" fill="#fbbf24"/>
        <text x="54" y="35" fill="#ecf3f7" font-size="17" font-weight="700">Act</text>
        <text x="54" y="56" fill="#6f8696" font-size="13">drafts + local routines</text>
      </g>
    </g>
  </g>

  <text x="1124" y="610" text-anchor="end" fill="#6f8696" font-family="-apple-system, BlinkMacSystemFont, 'Helvetica Neue', Arial, sans-serif" font-size="15" font-weight="600">lokalbot.com</text>
</svg>
